PathFileType	4	(X/Y/Z)	C:/Users/beibeiliu/ov580/test_trc\sequence.26_training_dense_right.trc
DataRate	CameraRate	NumFrames	NumMarkers	Units	OrigDataRate	OrigDataStartFrame	OrigNumFrames
120	120	12	19	mm	120	1	74
Frame#	Time	ThumbCMC			ThumbMCP			ThumbIP			ThumbTip			IndexMCP			IndexPIP			IndexTip			MiddleMCP			MiddlePIP			MiddleTip			RingMCP			RingPIP			RingTip			PinkyMCP			PinkyPIP			PinkyTip			BackHand1			BackHand2			BackHand3	
		X0	Y0	Z0	X1	Y1	Z1	X2	Y2	Z2	X3	Y3	Z3	X4	Y4	Z4	X5	Y5	Z5	X6	Y6	Z6	X7	Y7	Z7	X8	Y8	Z8	X9	Y9	Z9	X10	Y10	Z10	X11	Y11	Z11	X12	Y12	Z12	X13	Y13	Z13	X14	Y14	Z14	X15	Y15	Z15	X16	Y16	Z16	X17	Y17	Z17	X18	Y18	Z18	
0	0	50.0331	54.3219	26.1649	28.3968	40.6537	5.72522	22.5103	33.8788	-17.5979	19.6075	27.0296	-36.6333	45.6727	61.2634	-41.6924	38.7658	47.3782	-65.2141	30.1252	33.9516	-79.1588	69.2073	58.3448	-50.7244	61.1822	47.5044	-73.718	59.2486	26.8026	-93.5557	85.7819	51.0417	-47.2025	82.3299	39.9049	-69.1157	79.6234	24.7769	-87.0077	104.074	44.6631	-36.9241	106.909	36.2623	-54.5075	109.591	28.6521	-70.0639	91.9774	67.0983	-3.23798	95.3231	72.8253	23.84	68.9579	75.0885	14.1607	
1	0.00833333	47.4638	50.7841	21.363	33.0963	36.7745	6.47578	24.721	30.0844	-19.0451	17.2754	20.9837	-34.6452	45.9283	56.0771	-41.6451	37.1672	44.0116	-65.1845	34.3736	25.3432	-81.3734	65.9827	54.4179	-49.3427	60.4034	40.3869	-76.4724	59.3396	21.1869	-94.8044	83.5009	47.3918	-49.1877	87.5073	36.0381	-66.6025	78.9713	20.9779	-86.005	103.616	41.0793	-35.9347	107.336	32.0978	-55.3325	105.237	23.7678	-72.7958	91.5626	63.162	-3.15941	95.1205	68.5465	23.2619	67.6371	72.4662	10.8537	
2	0.0166667	47.5869	46.9761	26.8431	33.9976	33.1468	4.19697	23.8551	25.8987	-17.8193	20.5935	18.6688	-35.419	47.3288	52.415	-42.0033	38.1315	42.3858	-61.9327	36.3619	23.795	-79.1957	66.2311	48.8879	-53.9725	61.0328	36.3282	-75.6388	60.047	15.0406	-94.5216	87.375	43.024	-47.6299	84.2502	32.679	-65.7331	80.3569	16.2485	-83.8475	104.562	37.5971	-37.3049	107.432	27.6114	-52.161	106.277	20.6811	-68.855	93.2037	59.3688	-4.09715	98.5744	65.1002	20.3272	70.8587	69.0566	12.1399	
3	0.025	48.1624	44.3497	24.4967	32.9048	30.2963	7.26704	25.8081	23.9624	-18.8758	19.7466	15.1638	-36.1003	47.9472	52.0614	-39.4162	39.9218	38.626	-64.7983	38.966	21.0924	-79.8167	72.3925	46.8329	-51.7866	65.9004	32.4959	-76.1253	62.9023	12.3599	-91.6721	87.2567	41.3872	-48.8894	85.3459	28.1248	-69.3919	78.1986	12.5747	-83.0748	105.501	34.3076	-35.8323	106.447	25.3491	-50.859	104.884	13.3965	-72.1072	93.145	57.8048	-2.96266	99.8883	58.741	24.3061	69.272	65.2272	10.3574	
4	0.0333333	50.978	47.8187	22.379	37.0863	33.8925	4.94535	27.5573	28.0168	-18.4174	22.948	19.4629	-38.2504	54.7317	58.4487	-43.5358	45.2809	49.7999	-64.1416	42.7757	29.3405	-79.8287	73.1998	54.3426	-48.409	66.7171	38.5665	-76.3735	60.9173	19.391	-90.5424	90.7043	44.8366	-44.5129	83.4649	32.0474	-70.268	76.1571	14.7466	-84.2206	109.412	34.9095	-34.6394	106.023	25.1952	-57.6459	99.7841	12.2782	-72.6398	99.4417	57.0571	0.221965	108.266	58.2381	23.9217	81.0232	65.5216	13.7488	
5	0.0416667	57.4364	53.7558	19.2387	43.9558	40.9133	1.59971	33.858	35.3138	-16.8109	27.3123	28.5461	-37.6767	60.493	71.6429	-41.5731	56.0287	61.7071	-67.1638	40.8303	43.4529	-81.5123	82.3305	64.0141	-49.4849	74.3903	52.5155	-76.2134	61.5743	31.6959	-88.4122	94.6878	53.7196	-49.2396	90.1659	42.0966	-70.7396	75.0571	26.9365	-80.3991	113.401	39.4551	-40.9711	106.415	34.0737	-57.7794	95.6074	17.8051	-75.9775	109.839	58.4047	-3.98676	112.012	58.6071	20.9647	88.4162	70.596	10.0851	
6	0.05	66.0791	59.8156	18.3271	45.3084	50.649	1.26988	33.2596	46.8481	-21.2726	27.4473	39.0017	-40.4339	71.1222	83.7971	-41.1751	58.8924	78.2406	-66.4221	50.7322	57.4836	-79.7469	87.1248	76.6234	-49.8841	76.3733	66.3664	-75.7719	61.2461	42.7406	-85.7081	103.996	61.261	-51.0595	93.0658	51.68	-72.3146	76.5594	36.3276	-80.4266	114.906	47.1592	-40.2907	107.537	38.4226	-62.6702	90.1042	27.5188	-75.9691	114.763	63.3238	-1.16994	117.191	59.2528	22.6404	95.1597	75.385	11.5354	
7	0.0583333	70.7008	64.4231	22.2192	49.8271	57.87	0.350698	38.0901	55.1131	-20.7542	30.9999	49.0715	-43.111	77.3339	94.2823	-39.7564	66.2207	85.3782	-65.9974	49.9652	67.0137	-77.1728	93.643	82.9079	-51.3073	78.6679	75.0924	-75.2719	60.8499	48.6871	-83.0255	107.654	66.6561	-52.46	94.1473	58.7983	-73.565	73.7969	48.3294	-78.3505	118.183	51.9707	-40.9241	108.477	49.5491	-61.4897	90.4597	39.0444	-77.0607	120.035	67.4405	-5.62214	123.899	58.4435	23.1356	101.489	79.0344	15.6035	
8	0.0666667	75.9765	66.4218	17.9359	52.1678	60.2391	2.12035	41.9648	58.0569	-17.5858	31.9384	52.5867	-38.8906	82.324	95.8468	-39.2378	68.7384	91.6442	-62.7242	54.6482	74.4231	-72.5626	97.908	86.008	-48.6734	79.6631	78.1833	-74.468	63.194	61.0035	-80.1699	108.845	71.1341	-46.8945	94.8266	66.1899	-69.5403	72.2189	50.8136	-77.7227	119.748	54.2056	-43.0585	106.058	54.3316	-62.0631	92.4906	44.7526	-75.0858	126.488	63.8307	-5.22842	128.749	55.458	18.9261	108.014	75.8021	16.0957	
9	0.075	76.3468	65.1023	25.1319	53.1245	59.1202	3.40909	41.8187	58.2888	-15.4939	32.8982	53.9569	-38.6945	85.8375	94.772	-37.0853	70.3058	93.8755	-56.758	52.92	72.937	-69.1576	96.2996	88.9762	-47.442	80.3395	80.1394	-71.8859	62.244	63.3952	-79.0319	110.672	70.39	-45.6896	95.1527	67.8315	-67.2587	73.6512	54.6858	-75.5309	121.971	52.9702	-42.8438	108.354	55.2686	-60.9986	90.5208	51.8593	-73.4882	122.85	62.0745	-0.480422	129.466	52.9208	18.8575	112.517	73.6691	18.3822	
10	0.0833333	79.2323	62.6708	23.3295	52.7728	58.2405	3.12593	40.7437	55.6413	-16.2127	36.4481	51.1583	-39.1203	85.456	94.6821	-30.2607	69.2976	91.0911	-57.2228	58.9327	73.2533	-69.3291	98.801	86.566	-44.8492	86.5275	81.3814	-69.1015	66.4178	61.4937	-78.3576	112.275	71.1259	-47.0774	98.0023	68.0109	-66.7001	77.5958	55.25	-75.4878	123.946	53.2858	-40.9149	110.889	56.903	-58.4027	91.7225	52.1569	-74.0515	124.729	61.1188	3.32877	131.106	52.4821	25.5334	110.589	71.0235	20.7469	
11	0.0916667	77.4277	58.5546	26.8036	59.9208	53.5091	2.16761	45.6394	53.094	-22.4695	40.1162	48.7303	-44.4582	82.5517	96.2929	-31.1685	73.7722	91.6442	-57.7043	60.4523	72.7031	-71.5308	98.1957	90.0976	-39.1882	87.4607	84.5042	-68.9876	69.5567	64.6877	-80.0293	114.412	76.7713	-43.6852	103.122	72.001	-65.721	82.2357	57.4204	-76.3591	123.094	63.3035	-39.0058	114.646	62.0179	-59.7621	100.987	55.3575	-74.0743	126.412	67.1977	0.447826	129.927	57.1438	26.2119	105.024	76.6837	20.1525	
